<svg xmlns="http://www.w3.org/2000/svg" width="20" height="20" viewBox="0 0 20 20">
  <defs>
    <style>
      .cls-1 {
        fill: #788892;
        fill-rule: evenodd;
      }
    </style>
  </defs>
  <path id="icon" class="cls-1" d="M478.647,895H461.32a1.32,1.32,0,0,0,0,2.64h17.359A1.306,1.306,0,0,0,480,896.32,1.354,1.354,0,0,0,478.647,895Zm0,17.358H461.32a1.321,1.321,0,0,0,0,2.641h17.359a1.306,1.306,0,0,0,1.321-1.32A1.355,1.355,0,0,0,478.647,912.358Zm0-8.695H461.32a1.321,1.321,0,0,0,0,2.641h17.359a1.306,1.306,0,0,0,1.321-1.32A1.354,1.354,0,0,0,478.647,903.663Z" transform="translate(-460 -895)"/>
</svg>
