<svg xmlns="http://www.w3.org/2000/svg" width="30" height="30" viewBox="0 0 30 30">
  <defs>
    <style>
      .cls-1 {
        fill: #ff8155;
        fill-rule: evenodd;
      }
    </style>
  </defs>
  <path id="icon" class="cls-1" d="M1375,744.043a2.04,2.04,0,0,0-2.04-2.044,2.056,2.056,0,0,0-1.45.605c-0.17.164-.46,0.518-0.63,0.715a0.487,0.487,0,0,0,.75.621c0.26-.308.47-0.551,0.57-0.649a1.063,1.063,0,0,1,.76-0.32h0a1.06,1.06,0,0,1,1.07,1.068,1.1,1.1,0,0,1-.32.764,18.824,18.824,0,0,1-1.72,1.315,3.079,3.079,0,0,0-2.66-1.529h-7.12a3.569,3.569,0,0,0-2.54,1.053l-14.22,14.226a1.514,1.514,0,0,0,0,2.154l9.53,9.532a1.491,1.491,0,0,0,1.07.446,1.531,1.531,0,0,0,1.08-.446l14.23-14.226a3.569,3.569,0,0,0,1.05-2.543v-7.118a3.093,3.093,0,0,0-.06-0.613,17.737,17.737,0,0,0,2.04-1.564A2.031,2.031,0,0,0,1375,744.043Zm-3.56,10.742a2.631,2.631,0,0,1-.77,1.855l-14.23,14.226a0.552,0.552,0,0,1-.78,0l-9.53-9.531a0.554,0.554,0,0,1,0-.779l14.23-14.226a2.585,2.585,0,0,1,1.85-.769h7.12a2.1,2.1,0,0,1,1.85,1.105c-0.57.38-1.21,0.784-1.89,1.182a0.51,0.51,0,0,1-.07-0.069,2.043,2.043,0,1,0,.53.923c0.59-.345,1.16-0.7,1.69-1.039v7.122h0Zm-4.1-5.344a0.5,0.5,0,0,0,.44.268,0.54,0.54,0,0,0,.22-0.052q0.42-.216.84-0.445a1.042,1.042,0,0,1-.31.767,1.069,1.069,0,1,1-.75-1.825,1.048,1.048,0,0,1,.61.2c-0.27.149-.55,0.3-0.83,0.437A0.489,0.489,0,0,0,1367.34,749.441Zm-7.86,2.458a0.48,0.48,0,0,0-.48.486V762.65a0.48,0.48,0,0,0,.48.486,0.489,0.489,0,0,0,.49-0.486V752.385A0.489,0.489,0,0,0,1359.48,751.9Zm-2.22,4.175a2.036,2.036,0,1,0,.6,1.444A2.049,2.049,0,0,0,1357.26,756.074Zm-0.69,2.2a1.053,1.053,0,1,1,.32-0.756A1.07,1.07,0,0,1,1356.57,758.274Zm8.02-2.2a2.041,2.041,0,1,0,0,2.887A2.049,2.049,0,0,0,1364.59,756.074Zm-0.69,2.2a1.068,1.068,0,1,1-.75-1.825,1.042,1.042,0,0,1,.75.313A1.065,1.065,0,0,1,1363.9,758.274Z" transform="translate(-1345 -742)"/>
</svg>
