<svg xmlns="http://www.w3.org/2000/svg" width="30" height="32" viewBox="0 0 30 32">
  <defs>
    <style>
      .cls-1 {
        fill: #ff8155;
        fill-rule: evenodd;
      }
    </style>
  </defs>
  <path id="icon" class="cls-1" d="M758.868,762.26a1.888,1.888,0,0,0,1.386-.778l4.98-6.9a0.533,0.533,0,0,0-.743-0.745l-6.886,5a1.9,1.9,0,0,0,1.114,3.438C758.769,762.266,758.818,762.264,758.868,762.26Zm-0.976-1.96a0.83,0.83,0,0,1,.338-0.608l4.2-3.047-3.038,4.21A0.831,0.831,0,0,1,757.892,760.3Zm12.891-7.867a0.272,0.272,0,0,1-.011-0.034c-0.007-.01-0.017-0.016-0.024-0.026a14.454,14.454,0,0,0-1.9-2.565L770,748.663l0.752,0.754L773,747.154l-2.256-2.263-2.257,2.263,0.752,0.755-1.142,1.145a14.409,14.409,0,0,0-2.558-1.9c-0.01-.007-0.016-0.017-0.027-0.024s-0.023-.006-0.034-0.011a14.221,14.221,0,0,0-5.464-1.816v-0.635h0.8a1.334,1.334,0,0,0,0-2.667h-4.787a1.334,1.334,0,0,0,0,2.667h0.8v0.616a14.572,14.572,0,0,0-1.715.286,0.533,0.533,0,0,0,.238,1.039,13.811,13.811,0,0,1,1.479-.255l0.57-.043c0.175-.014.335-0.024,0.492-0.031v1.054a0.532,0.532,0,1,0,1.064,0v-1.05a13.153,13.153,0,0,1,5.561,1.517l-0.524.911a0.533,0.533,0,0,0,.194.728,0.524,0.524,0,0,0,.266.072,0.531,0.531,0,0,0,.461-0.267l0.523-.908a13.415,13.415,0,0,1,4.134,4.145l-0.906.524a0.533,0.533,0,1,0,.533.924l0.908-.526a13.263,13.263,0,0,1,1.515,5.663h-1.05a0.534,0.534,0,0,0,0,1.067h1.05A13.271,13.271,0,0,1,770.1,765.8l-0.908-.526a0.533,0.533,0,0,0-.532.923l0.906,0.525a13.436,13.436,0,0,1-4.134,4.145l-0.523-.908a0.532,0.532,0,1,0-.921.533l0.524,0.91a13.153,13.153,0,0,1-5.561,1.517v-1.049a0.532,0.532,0,1,0-1.064,0v1.054a13.43,13.43,0,0,1-2.54-.329,0.533,0.533,0,0,0-.238,1.039,14.291,14.291,0,0,0,3.222.369l0.077,0,0.01,0,0.012,0a14.249,14.249,0,0,0,7.031-1.906,0.44,0.44,0,0,0,.05-0.021c0.011-.007.017-0.017,0.027-0.023a14.491,14.491,0,0,0,5.2-5.206c0.01-.015.023-0.026,0.032-0.042s0.006-.023.011-0.034A14.375,14.375,0,0,0,770.783,752.433Zm-0.037-6.033,0.752,0.754-0.752.755-0.753-.755Zm-12.857-1.19V743.6h-1.862a0.267,0.267,0,0,1,0-.533h4.787a0.267,0.267,0,0,1,0,.533h-1.861v1.611c-0.185-.007-0.362-0.011-0.532-0.011h-0.087c-0.087,0-.174.006-0.262,0.007Zm-4.256,4.256h-2.659a0.534,0.534,0,0,0,0,1.067h2.659A0.534,0.534,0,0,0,753.633,749.466Zm0,3.733h-5.318a0.534,0.534,0,0,0,0,1.067h5.318A0.534,0.534,0,0,0,753.633,753.2Zm0,3.733h-7.978a0.534,0.534,0,0,0,0,1.067h7.978A0.534,0.534,0,0,0,753.633,756.932Zm0,3.734H743.527a0.534,0.534,0,0,0,0,1.067h10.106A0.534,0.534,0,0,0,753.633,760.666Zm0,3.733h-6.914a0.534,0.534,0,0,0,0,1.067h6.914A0.534,0.534,0,0,0,753.633,764.4Zm0,3.734H749.91a0.533,0.533,0,0,0,0,1.066h3.723A0.533,0.533,0,0,0,753.633,768.133Z" transform="translate(-743 -742)"/>
</svg>
