<svg xmlns="http://www.w3.org/2000/svg" width="27" height="30" viewBox="0 0 27 30">
  <defs>
    <style>
      .cls-1 {
        fill: #ff8155;
        fill-rule: evenodd;
      }
    </style>
  </defs>
  <path id="icon" class="cls-1" d="M1057.5,749a3,3,0,0,0-6,0v0.5a0.5,0.5,0,0,0,1,0V749a2,2,0,0,1,4,0v3.5H1049V762h11v-9.5h-2.5V749Zm1.5,12h-9v-7.5h9V761Zm-4.5-6.5a2,2,0,0,0-.5,3.929V759.5a0.5,0.5,0,0,0,1,0v-1.071A2,2,0,0,0,1054.5,754.5Zm0,3a1,1,0,1,1,1-1A1,1,0,0,1,1054.5,757.5Zm0-15.5a13.5,13.5,0,0,0-1.15,26.948l-2.2,2.2a0.492,0.492,0,0,0,0,.707,0.49,0.49,0,0,0,.7,0l3-3a0.387,0.387,0,0,0,.11-0.163,0.505,0.505,0,0,0,0-.382,0.394,0.394,0,0,0-.11-0.163l-3-3a0.5,0.5,0,0,0-.7.708l2.08,2.082a12.5,12.5,0,1,1,10.15-3.639,0.51,0.51,0,0,0,0,.707,0.5,0.5,0,0,0,.71,0A13.5,13.5,0,0,0,1054.5,742Z" transform="translate(-1041 -742)"/>
</svg>
