<svg xmlns="http://www.w3.org/2000/svg" width="40" height="29" viewBox="0 0 40 29">
  <defs>
    <style>
      .cls-1 {
        fill: #ff8155;
        fill-rule: evenodd;
      }
    </style>
  </defs>
  <path id="icon" class="cls-1" d="M467.383,751.271h-2.519l0.759-8.641a0.354,0.354,0,0,0,0-.046v0h0a0.58,0.58,0,0,0-.353-0.532l-0.006,0-0.04-.014-0.015,0-0.034-.009-0.023,0-0.031,0-0.028,0H453.048a0.581,0.581,0,1,0,0,1.162H464.4l-1.166,13.279v0l-0.295,3.35h-20.36l0.341-3.487H446.8a0.581,0.581,0,1,0,0-1.162h-3.763l0.719-7.36h6.17a0.582,0.582,0,1,0,0-1.163h-6.057l0.338-3.461h6.5a0.581,0.581,0,1,0,0-1.162h-7.032a0.585,0.585,0,0,0-.572.458,0.011,0.011,0,0,1,0,.006,0.325,0.325,0,0,0-.006.045,0.069,0.069,0,0,0,0,.013,0,0,0,0,0,0,0l-0.4,4.1h-7.1a0.582,0.582,0,1,0,0,1.163h6.989l-0.719,7.36h-2.09a0.581,0.581,0,1,0,0,1.162h1.977l-0.392,4.008v0l-0.605,6.2v0a0.209,0.209,0,0,0,0,.025c0,0.01,0,.021,0,0.031v0a0.325,0.325,0,0,0,0,.044v0.015c0,0.015,0,.029.007,0.044s0,0.009,0,.013l0.009,0.033a0.2,0.2,0,0,0,.006.023,0.014,0.014,0,0,0,0,.006,0.576,0.576,0,0,0,.139.228,0.006,0.006,0,0,0,0,0L440.933,767a0.638,0.638,0,0,0,.136.092l0.031,0.015,0.01,0,0.045,0.016h0l0.053,0.013h0.007l0.051,0.008h0l0.057,0h2.609a4.465,4.465,0,0,0,8.843,0h9.4a4.465,4.465,0,0,0,8.843,0h2.61a0.549,0.549,0,0,0,.058,0l0.01,0a0.3,0.3,0,0,0,.045-0.007l0.019,0,0.035-.009,0.022-.007,0.029-.01,0.024-.011,0.025-.012,0.024-.013,0.023-.014,0.022-.014,0.023-.018a0.13,0.13,0,0,0,.02-0.015l0.023-.021,0.016-.015a0.285,0.285,0,0,0,.023-0.026l0.013-.014,0.024-.032,0.008-.011a0.4,0.4,0,0,0,.027-0.044l0,0a0.385,0.385,0,0,0,.024-0.05,0.078,0.078,0,0,0,0-.014c0-.012.01-0.024,0.014-0.037a0.217,0.217,0,0,1,.007-0.024c0-.01,0-0.02.007-0.029s0-.018,0-0.027,0-.016,0-0.023c0.025-.2.484-3.849,0.688-6.21a0.017,0.017,0,0,0,0-.007c0.059-.68.1-1.254,0.1-1.6A7.6,7.6,0,0,0,467.383,751.271Zm-2.621,1.163h2.4l-0.306,3.486h-2.4Zm-16.4,17.4a3.263,3.263,0,1,1,3.289-3.263A3.281,3.281,0,0,1,448.36,769.837Zm18.241,0a3.263,3.263,0,1,1,3.29-3.263A3.28,3.28,0,0,1,466.6,769.837Zm6.513-3.844h-2.091a4.465,4.465,0,0,0-8.843,0h-9.4a4.465,4.465,0,0,0-8.843,0h-1.964l0.492-5.037h21.011a0.585,0.585,0,0,0,.059,0h0.01l0.046-.007,0.019,0a0.358,0.358,0,0,0,.035-0.009l0.023-.007,0.029-.011,0.024-.011,0.026-.012,0.023-.013,0.024-.015a0.164,0.164,0,0,0,.022-0.014l0.023-.017,0.02-.016,0.022-.021,0.017-.017,0.021-.022,0.015-.019a0.235,0.235,0,0,0,.019-0.025,0.127,0.127,0,0,0,.013-0.019,0.246,0.246,0,0,0,.017-0.027,0.212,0.212,0,0,0,.011-0.021c0-.009.01-0.018,0.014-0.027s0.007-.015.01-0.023,0.007-.018.011-0.028,0.005-.016.008-0.025a0.268,0.268,0,0,0,.007-0.027c0-.009,0-0.018.007-0.028s0-.018,0-0.027,0-.02,0-0.03v0l0.294-3.343h3.028a4.2,4.2,0,0,1,3.462,1.9,4.813,4.813,0,0,0,2.84,1.925C473.513,762.693,473.238,764.988,473.114,765.993Zm0.67-6.252a3.833,3.833,0,0,1-2.056-1.522,5.5,5.5,0,0,0-3.7-2.264l0.3-3.452a6.419,6.419,0,0,1,5.5,6.323C473.828,759.044,473.811,759.36,473.784,759.741Zm-25.424,4.7a2.131,2.131,0,1,0,2.148,2.131A2.143,2.143,0,0,0,448.36,764.443Zm0,3.1a0.969,0.969,0,1,1,.976-0.969A0.974,0.974,0,0,1,448.36,767.543Zm18.241-3.1a2.131,2.131,0,1,0,2.149,2.131A2.143,2.143,0,0,0,466.6,764.443Zm0,3.1a0.969,0.969,0,1,1,.977-0.969A0.973,0.973,0,0,1,466.6,767.543Zm-26.054-16.272h-2.865a0.582,0.582,0,1,0,0,1.163h2.865A0.582,0.582,0,1,0,440.547,751.271Z" transform="translate(-435 -742)"/>
</svg>
